<svg width="174" height="30" viewBox="0 0 174 30" fill="none" xmlns="http://www.w3.org/2000/svg">
<path d="M32.321 29.6571V0.4H44.9379C47.1073 0.4 49.0055 0.795238 50.6326 1.58571C52.2596 2.37619 53.5251 3.51429 54.4291 5C55.333 6.48571 55.7849 8.26667 55.7849 10.3429C55.7849 12.4381 55.3187 14.2048 54.3862 15.6429C53.4633 17.081 52.1645 18.1667 50.4899 18.9C48.8247 19.6333 46.8789 20 44.6524 20H37.1166V13.8286H43.0539C43.9864 13.8286 44.7809 13.7143 45.4374 13.4857C46.1035 13.2476 46.6125 12.8714 46.9646 12.3571C47.3261 11.8429 47.5069 11.1714 47.5069 10.3429C47.5069 9.50476 47.3261 8.82381 46.9646 8.3C46.6125 7.76667 46.1035 7.37619 45.4374 7.12857C44.7809 6.87143 43.9864 6.74286 43.0539 6.74286H40.2565V29.6571H32.321ZM49.448 16.2286L56.7555 29.6571H48.1349L40.9987 16.2286H49.448Z" fill="#1C1C1C"/>
<path d="M59.1675 29.6571V0.4H80.2336V6.8H67.103V11.8286H79.1489V18.2286H67.103V23.2571H80.1765V29.6571H59.1675Z" fill="#1C1C1C"/>
<path d="M99.926 9.54286C99.8499 8.59048 99.4931 7.84762 98.8556 7.31429C98.2276 6.78095 97.2714 6.51429 95.9868 6.51429C95.1686 6.51429 94.4977 6.61428 93.9744 6.81428C93.4606 7.00476 93.08 7.26667 92.8326 7.6C92.5852 7.93333 92.4568 8.31429 92.4473 8.74286C92.4282 9.09524 92.4901 9.41429 92.6328 9.7C92.785 9.97619 93.0229 10.2286 93.3464 10.4571C93.6699 10.6762 94.0838 10.8762 94.5881 11.0571C95.0924 11.2381 95.6919 11.4 96.3865 11.5429L98.7842 12.0571C100.402 12.4 101.786 12.8524 102.938 13.4143C104.089 13.9762 105.031 14.6381 105.763 15.4C106.496 16.1524 107.034 17 107.376 17.9429C107.728 18.8857 107.909 19.9143 107.919 21.0286C107.909 22.9524 107.429 24.581 106.477 25.9143C105.526 27.2476 104.165 28.2619 102.395 28.9571C100.635 29.6524 98.5178 30 96.0439 30C93.5034 30 91.2865 29.6238 89.393 28.8714C87.509 28.119 86.0437 26.9619 84.9971 25.4C83.9599 23.8286 83.4366 21.819 83.4271 19.3714H90.9629C91.0105 20.2667 91.2341 21.019 91.6337 21.6286C92.0334 22.2381 92.5948 22.7 93.3179 23.0143C94.0505 23.3286 94.9212 23.4857 95.9297 23.4857C96.7766 23.4857 97.4854 23.381 98.0563 23.1714C98.6272 22.9619 99.0602 22.6714 99.3551 22.3C99.6501 21.9286 99.8023 21.5048 99.8119 21.0286C99.8023 20.581 99.6549 20.1905 99.3694 19.8571C99.0935 19.5143 98.6367 19.2095 97.9993 18.9429C97.3617 18.6667 96.5006 18.4095 95.4159 18.1714L92.5044 17.5429C89.9163 16.981 87.8753 16.0429 86.3815 14.7286C84.8971 13.4048 84.1597 11.6 84.1693 9.31429C84.1597 7.45714 84.6545 5.83333 85.6536 4.44286C86.6622 3.04286 88.0561 1.95238 89.8354 1.17143C91.6242 0.390476 93.6747 0 95.9868 0C98.3465 0 100.388 0.395238 102.11 1.18571C103.832 1.97619 105.159 3.09048 106.092 4.52857C107.034 5.95714 107.509 7.62857 107.519 9.54286H99.926Z" fill="#1C1C1C"/>
<path d="M110.138 6.8V0.4H135.543V6.8H126.751V29.6571H118.93V6.8H110.138Z" fill="#1C1C1C"/>
<path d="M143.725 0.4V29.6571H140.185V0.4H143.725Z" fill="#1C1C1C"/>
<path d="M174 0.4V29.6571H170.575L154.647 6.68571H154.361V29.6571H150.822V0.4H154.247L170.232 23.4286H170.518V0.4H174Z" fill="#1C1C1C"/>
<path fill-rule="evenodd" clip-rule="evenodd" d="M0 12.5351C0 6.39883 4.39212 1.2349 10.2026 0V12.5351H0ZM0 30V17.0738H10.2026V30H0ZM15.5572 0C21.3677 1.2349 25.7598 6.39887 25.7598 12.5351H15.5572V0ZM15.5572 17.0738H25.7598V30H15.5572V17.0738Z" fill="#AA8453"/>
</svg>
