<svg width="174" height="30" viewBox="0 0 174 30" fill="none" xmlns="http://www.w3.org/2000/svg">
<path d="M32.2639 29.6571V0.4H44.8585C47.024 0.4 48.9189 0.795238 50.5431 1.58571C52.1673 2.37619 53.4305 3.51429 54.3329 5C55.2352 6.48571 55.6863 8.26667 55.6863 10.3429C55.6863 12.4381 55.2209 14.2048 54.2901 15.6429C53.3688 17.081 52.0723 18.1667 50.4006 18.9C48.7384 19.6333 46.7961 20 44.5735 20H37.051V13.8286H42.9778C43.9086 13.8286 44.7017 13.7143 45.3571 13.4857C46.022 13.2476 46.5301 12.8714 46.8816 12.3571C47.2425 11.8429 47.423 11.1714 47.423 10.3429C47.423 9.50476 47.2425 8.82381 46.8816 8.3C46.5301 7.76667 46.022 7.37619 45.3571 7.12857C44.7017 6.87143 43.9086 6.74286 42.9778 6.74286H40.1854V29.6571H32.2639ZM49.3606 16.2286L56.6552 29.6571H48.0498L40.9262 16.2286H49.3606Z" fill="#AA8453"/>
<path d="M59.0629 29.6571V0.4H80.0918V6.8H66.9844V11.8286H79.009V18.2286H66.9844V23.2571H80.0348V29.6571H59.0629Z" fill="#AA8453"/>
<path d="M99.7494 9.54286C99.6734 8.59048 99.3173 7.84762 98.6809 7.31429C98.054 6.78095 97.0994 6.51429 95.8172 6.51429C95.0004 6.51429 94.3307 6.61428 93.8083 6.81428C93.2954 7.00476 92.9155 7.26667 92.6686 7.6C92.4216 7.93333 92.2934 8.31429 92.2839 8.74286C92.2649 9.09524 92.3266 9.41429 92.4691 9.7C92.6211 9.97619 92.8585 10.2286 93.1815 10.4571C93.5044 10.6762 93.9176 10.8762 94.421 11.0571C94.9244 11.2381 95.5228 11.4 96.2161 11.5429L98.6096 12.0571C100.224 12.4 101.606 12.8524 102.756 13.4143C103.905 13.9762 104.845 14.6381 105.577 15.4C106.308 16.1524 106.845 17 107.186 17.9429C107.538 18.8857 107.718 19.9143 107.728 21.0286C107.718 22.9524 107.239 24.581 106.289 25.9143C105.339 27.2476 103.981 28.2619 102.214 28.9571C100.457 29.6524 98.3437 30 95.8742 30C93.3382 30 91.1251 29.6238 89.235 28.8714C87.3544 28.119 85.8916 26.9619 84.8468 25.4C83.8115 23.8286 83.2891 21.819 83.2796 19.3714H90.8022C90.8497 20.2667 91.0729 21.019 91.4718 21.6286C91.8707 22.2381 92.4311 22.7 93.153 23.0143C93.8843 23.3286 94.7534 23.4857 95.7602 23.4857C96.6055 23.4857 97.3132 23.381 97.883 23.1714C98.4529 22.9619 98.8851 22.6714 99.1795 22.3C99.474 21.9286 99.626 21.5048 99.6355 21.0286C99.626 20.581 99.4787 20.1905 99.1938 19.8571C98.9183 19.5143 98.4624 19.2095 97.826 18.9429C97.1897 18.6667 96.3301 18.4095 95.2473 18.1714L92.3409 17.5429C89.7574 16.981 87.72 16.0429 86.2288 14.7286C84.7471 13.4048 84.011 11.6 84.0205 9.31429C84.011 7.45714 84.5049 5.83333 85.5022 4.44286C86.509 3.04286 87.9005 1.95238 89.6766 1.17143C91.4623 0.390476 93.5092 0 95.8172 0C98.1727 0 100.21 0.395238 101.929 1.18571C103.648 1.97619 104.973 3.09048 105.904 4.52857C106.845 5.95714 107.319 7.62857 107.329 9.54286H99.7494Z" fill="#AA8453"/>
<path d="M109.943 6.8V0.4H135.303V6.8H126.527V29.6571H118.72V6.8H109.943Z" fill="#AA8453"/>
<path d="M143.471 0.4V29.6571H139.937V0.4H143.471Z" fill="#AA8453"/>
<path d="M173.692 0.4V29.6571H170.273L154.373 6.68571H154.088V29.6571H150.555V0.4H153.974L169.931 23.4286H170.216V0.4H173.692Z" fill="#AA8453"/>
<path fill-rule="evenodd" clip-rule="evenodd" d="M0 12.5351C0 6.39883 4.38435 1.2349 10.1846 0V12.5351H0ZM0 30V17.0738H10.1846V30H0ZM15.5297 0C21.3299 1.2349 25.7143 6.39887 25.7143 12.5351H15.5297V0ZM15.5297 17.0738H25.7143V30H15.5297V17.0738Z" fill="#AA8453"/>
</svg>
