<svg width="45" height="45" viewBox="0 0 45 45" fill="none" xmlns="http://www.w3.org/2000/svg">
<g clip-path="url(#clip0_73_902)">
<path d="M18.0111 6.42306C14.0973 2.51122 6.43836 2.05762 1.01715 2.05762C0.455701 2.05762 0 2.51322 0 3.07467C0 8.49588 0.451601 16.1548 4.36544 20.0687C6.01727 21.7206 8.5499 22.459 11.0601 22.459C13.788 22.459 16.4915 21.5863 18.0111 20.0667C20.9262 17.1516 21.4612 9.87109 18.0111 6.42306ZM16.573 18.6305C14.3963 20.805 8.35261 21.1773 5.80578 18.6305C2.64657 15.4714 2.09933 9.05333 2.04031 4.09793C6.99571 4.15695 13.4138 4.7041 16.5729 7.8633C19.1198 10.4101 18.7475 16.4559 16.573 18.6305Z" fill="#AA8453"/>
<path d="M43.7829 6.0813C38.3617 6.0813 30.7028 6.5329 26.7888 10.4467C23.3388 13.8948 23.8737 21.1753 26.7888 24.0904C28.3084 25.608 31.0099 26.4807 33.7378 26.4807C36.248 26.4807 38.7787 25.7442 40.4345 24.0925C44.3463 20.1787 44.7999 12.5198 44.7999 7.09845C44.8 6.537 44.3443 6.0813 43.7829 6.0813ZM38.9922 22.6522C36.4454 25.199 30.3996 24.8267 28.2251 22.6522C26.0505 20.4776 25.6782 14.4318 28.2251 11.885C31.3843 8.72577 37.8022 8.17863 42.7576 8.1196C42.6987 13.077 42.1514 19.4951 38.9922 22.6522Z" fill="#AA8453"/>
<path d="M36.4373 14.8855C36.1973 14.3749 35.5097 14.2 35.0032 14.4359C27.2019 18.1036 23.3694 24.4993 21.628 31.0739C19.4738 17.0946 13.2429 12.8329 10.6004 11.0245C10.2709 10.7987 10.0146 10.6339 9.87222 10.4936C9.47554 10.0969 8.83066 10.0969 8.43398 10.4936C8.03731 10.8902 8.03731 11.5351 8.43398 11.9318C8.63537 12.1312 8.98323 12.3814 9.45313 12.7027C12.4313 14.739 20.3424 20.1521 20.3424 41.7252C20.3424 42.2867 20.7981 42.7424 21.3595 42.7424C21.921 42.7424 22.3767 42.2867 22.3767 41.7273C22.3767 33.0106 24.7181 21.5192 35.8698 16.279C35.8698 16.277 36.0345 16.1997 36.0345 16.1997C36.5411 15.9596 36.6773 15.394 36.4373 14.8855Z" fill="#AA8453"/>
</g>
<defs>
<clipPath id="clip0_73_902">
<rect width="44.8" height="44.8" fill="white"/>
</clipPath>
</defs>
</svg>
