<svg width="45" height="45" viewBox="0 0 45 45" fill="none" xmlns="http://www.w3.org/2000/svg">
<path d="M38.5281 32.6667C38.4946 30.8566 37.7738 29.1271 36.512 27.8289C35.2502 26.5307 33.5418 25.761 31.7335 25.676V4.37737C31.731 3.71064 31.4644 3.07206 30.9921 2.60149C30.5197 2.13091 29.8802 1.86669 29.2135 1.8667H28.6535C27.9867 1.86669 27.3472 2.13091 26.8748 2.60149C26.4025 3.07206 26.1359 3.71064 26.1335 4.37737V25.676C24.4615 25.7518 22.8692 26.4124 21.6348 27.5427C21.434 27.1347 21.1398 26.7798 20.7761 26.5067C20.2311 26.1195 19.578 25.9138 18.9095 25.9187C18.6816 24.7652 18.0582 23.7273 17.147 22.9842C16.2357 22.2411 15.0937 21.8393 13.9179 21.8482C12.7421 21.857 11.6062 22.276 10.7063 23.0327C9.80628 23.7894 9.19863 24.8365 8.98812 25.9934C7.71102 26.4199 6.60118 27.2387 5.81683 28.3331C5.03249 29.4275 4.61368 30.7416 4.62012 32.088C4.61884 32.5017 4.65949 32.9145 4.74145 33.32C4.07968 33.635 3.49439 34.0902 3.02624 34.654C2.55809 35.2179 2.2183 35.8769 2.03047 36.5853C1.84263 37.2937 1.81126 38.0346 1.93854 38.7563C2.06581 39.4781 2.34867 40.1634 2.76748 40.7649C3.18628 41.3663 3.73099 41.8694 4.36377 42.2391C4.99656 42.6088 5.70224 42.8364 6.43182 42.906C7.16139 42.9755 7.89737 42.8855 8.58863 42.642C9.27989 42.3985 9.90986 42.0075 10.4348 41.496C11.3694 42.4132 12.6253 42.9289 13.9348 42.9334H15.4001C16.5027 42.9696 17.5986 42.7491 18.6015 42.2894C18.8116 42.467 19.0612 42.5918 19.3295 42.6534H38.5375C38.6677 42.6531 38.7964 42.6255 38.9154 42.5725C39.0343 42.5194 39.1409 42.4421 39.2281 42.3454C39.315 42.2485 39.3806 42.1345 39.4208 42.0107C39.4609 41.8869 39.4748 41.7561 39.4615 41.6267L38.5281 32.6667ZM28.0001 4.37737C28.0001 4.292 28.0171 4.20749 28.05 4.12874C28.083 4.04999 28.1312 3.97858 28.192 3.91866C28.2528 3.85873 28.3249 3.81149 28.4041 3.77968C28.4834 3.74787 28.5681 3.73213 28.6535 3.73337H29.2135C29.3843 3.73337 29.5481 3.80122 29.6688 3.92199C29.7896 4.04276 29.8575 4.20657 29.8575 4.37737V25.6667H28.0001V4.37737ZM26.4601 27.5334H31.4068C32.6391 27.5349 33.8319 27.968 34.7782 28.7574C35.7244 29.5468 36.3643 30.6427 36.5868 31.8547H21.2801C21.5026 30.6427 22.1425 29.5468 23.0888 28.7574C24.035 27.968 25.2278 27.5349 26.4601 27.5334ZM13.9348 41.0667C13.3846 41.0691 12.8432 40.9284 12.3637 40.6584C11.8843 40.3885 11.4833 39.9984 11.2001 39.5267C11.1164 39.3916 10.9996 39.2802 10.8608 39.2029C10.722 39.1256 10.5657 39.085 10.4068 39.085C10.2479 39.085 10.0916 39.1256 9.95279 39.2029C9.81396 39.2802 9.69716 39.3916 9.61345 39.5267C9.34397 39.9728 8.96905 40.3459 8.52163 40.6132C8.07422 40.8806 7.568 41.0339 7.04745 41.0598C6.52691 41.0857 6.00797 40.9834 5.53622 40.7618C5.06447 40.5402 4.65436 40.2062 4.34191 39.7891C4.02946 39.3719 3.82423 38.8844 3.74427 38.3694C3.6643 37.8544 3.71204 37.3276 3.88329 36.8354C4.05453 36.3431 4.34405 35.9004 4.7264 35.5462C5.10875 35.1921 5.57223 34.9372 6.07612 34.804C6.20076 34.7723 6.31748 34.7151 6.41897 34.636C6.52045 34.557 6.60451 34.4578 6.66585 34.3448C6.7272 34.2317 6.76452 34.1072 6.77546 33.9791C6.78641 33.8509 6.77074 33.7219 6.72945 33.6C6.5637 33.1163 6.47856 32.6087 6.47745 32.0974C6.48398 31.0637 6.83835 30.0624 7.48345 29.2547C8.12856 28.4471 9.02681 27.8802 10.0335 27.6454C10.2317 27.601 10.4101 27.4931 10.5415 27.3381C10.6729 27.1832 10.7501 26.9896 10.7615 26.7867C10.7763 25.9426 11.1259 25.139 11.7332 24.5526C12.3406 23.9663 13.156 23.6452 14.0001 23.66C14.8442 23.6749 15.6478 24.0244 16.2342 24.6318C16.8206 25.2392 17.1416 26.0546 17.1268 26.8987C17.1749 27.2096 17.3037 27.5024 17.5001 27.748C17.6179 27.8349 17.7545 27.8928 17.8988 27.9171C18.0431 27.9414 18.191 27.9314 18.3308 27.888C18.7814 27.7511 19.268 27.7981 19.6841 28.0187C20.2628 28.3454 20.1508 29.344 20.1788 29.4374C19.6561 30.3707 18.5735 40.0027 18.5735 40.0027C17.6401 41.244 14.0748 41.0667 13.9348 41.0667ZM33.0121 40.8334V36.9227C33.0121 36.6752 32.9138 36.4378 32.7388 36.2627C32.5637 36.0877 32.3263 35.9894 32.0788 35.9894C31.8313 35.9894 31.5939 36.0877 31.4188 36.2627C31.2438 36.4378 31.1455 36.6752 31.1455 36.9227V40.8334H26.8988V36.9227C26.8988 36.6752 26.8005 36.4378 26.6254 36.2627C26.4504 36.0877 26.213 35.9894 25.9655 35.9894C25.7179 35.9894 25.4805 36.0877 25.3055 36.2627C25.1305 36.4378 25.0321 36.6752 25.0321 36.9227V40.8334H20.3655L21.1121 33.7214H36.7548L37.5015 40.8334H33.0121Z" fill="#AA8453"/>
<path d="M8.00814 23.9494C8.17529 23.9467 8.33906 23.9018 8.48414 23.8187C8.69699 23.6925 8.85097 23.4868 8.91223 23.247C8.97349 23.0072 8.93701 22.7529 8.8108 22.5401C8.5709 22.1407 8.45551 21.6789 8.47939 21.2136C8.50326 20.7484 8.66532 20.3008 8.94484 19.9281C9.22437 19.5554 9.60867 19.2745 10.0486 19.1213C10.4886 18.9681 10.9642 18.9496 11.4148 19.0681C11.7142 19.1413 11.9957 19.2741 12.2426 19.4585C12.4896 19.6429 12.6969 19.8752 12.8521 20.1414C12.9784 20.3542 13.184 20.5082 13.4238 20.5695C13.6636 20.6307 13.9179 20.5943 14.1308 20.4681C14.3411 20.3418 14.4933 20.1379 14.5544 19.9004C14.6156 19.6628 14.5807 19.4108 14.4575 19.1987C14.1756 18.7225 13.8026 18.3066 13.36 17.9745C12.9173 17.6425 12.4136 17.4009 11.8775 17.2635C11.3415 17.1261 10.7836 17.0957 10.2358 17.1739C9.68801 17.2521 9.16098 17.4375 8.6848 17.7194C8.20863 18.0013 7.79264 18.3742 7.4606 18.8169C7.12855 19.2596 6.88695 19.7633 6.74958 20.2993C6.61221 20.8354 6.58177 21.3932 6.65999 21.941C6.73821 22.4888 6.92356 23.0159 7.20547 23.4921C7.28808 23.6314 7.40552 23.7468 7.54625 23.827C7.68698 23.9072 7.84616 23.9494 8.00814 23.9494Z" fill="#AA8453"/>
<path d="M17.8548 17.9946C18.448 18.1815 18.9431 18.5957 19.2318 19.1467C19.5204 19.6977 19.579 20.3405 19.3948 20.9346C19.3215 21.1698 19.3441 21.4244 19.4577 21.6429C19.5714 21.8615 19.7668 22.0262 20.0014 22.1013C20.0918 22.131 20.1863 22.1468 20.2814 22.148C20.4873 22.1574 20.6905 22.0984 20.8593 21.9802C21.0282 21.862 21.1531 21.6913 21.2148 21.4946C21.379 20.9639 21.4368 20.406 21.3849 19.8529C21.333 19.2999 21.1723 18.7625 20.9121 18.2716C20.652 17.7808 20.2974 17.3462 19.8689 16.9927C19.4403 16.6393 18.9461 16.3739 18.4148 16.212C18.1796 16.1387 17.925 16.1613 17.7064 16.2749C17.4879 16.3886 17.3231 16.584 17.2481 16.8186C17.2104 16.9357 17.1962 17.059 17.2063 17.1815C17.2164 17.3041 17.2506 17.4234 17.307 17.5327C17.3634 17.642 17.4408 17.7391 17.5348 17.8183C17.6288 17.8976 17.7375 17.9575 17.8548 17.9946Z" fill="#AA8453"/>
<path d="M2.87457 20.9626H3.08923C3.32894 20.905 3.53611 20.7549 3.66551 20.5451C3.79491 20.3352 3.83604 20.0827 3.7799 19.8426C3.64802 19.2392 3.75786 18.608 4.08588 18.0846C4.4139 17.5612 4.93397 17.1871 5.53457 17.0426C5.65407 17.0151 5.76697 16.9642 5.86682 16.893C5.96668 16.8218 6.05153 16.7316 6.11653 16.6276C6.18153 16.5236 6.22541 16.4078 6.24566 16.2869C6.26591 16.1659 6.26215 16.0422 6.23457 15.9226C6.20699 15.8031 6.15614 15.6902 6.08493 15.5904C6.01372 15.4905 5.92354 15.4057 5.81954 15.3407C5.71554 15.2757 5.59975 15.2318 5.47879 15.2116C5.35783 15.1913 5.23407 15.1951 5.11457 15.2226C4.02555 15.4778 3.08245 16.1551 2.49263 17.1054C1.90281 18.0558 1.71454 19.2015 1.96923 20.2906C2.02622 20.4861 2.14552 20.6575 2.30896 20.7788C2.47241 20.9001 2.67103 20.9647 2.87457 20.9626Z" fill="#AA8453"/>
</svg>
