<svg width="45" height="45" viewBox="0 0 45 45" fill="none" xmlns="http://www.w3.org/2000/svg">
<path d="M36.3998 24.3611V19.5628C36.3426 18.6238 35.9405 17.739 35.2706 17.0785C34.6008 16.4179 33.7106 16.0281 32.7709 15.9839L29.3829 15.6371L37.0129 8.01512C37.2749 7.75543 37.4831 7.44654 37.6254 7.10617C37.7678 6.76579 37.8415 6.40065 37.8423 6.03172C37.8431 5.66278 37.7711 5.29732 37.6302 4.95632C37.4894 4.61531 37.2826 4.30549 37.0217 4.04464C36.7608 3.78379 36.4509 3.57705 36.1099 3.4363C35.7689 3.29555 35.4034 3.22355 35.0344 3.22445C34.6655 3.22536 34.3004 3.29913 33.96 3.44155C33.6197 3.58396 33.3109 3.79221 33.0512 4.05433L27.6125 9.49903C27.9458 8.64999 28.0667 7.73239 27.9647 6.826C27.8626 5.91961 27.5407 5.05186 27.0269 4.2982C26.5132 3.54455 25.8231 2.92779 25.0167 2.50157C24.2103 2.07534 23.312 1.85254 22.3998 1.85254C21.4877 1.85254 20.5894 2.07534 19.783 2.50157C18.9766 2.92779 18.2865 3.54455 17.7727 4.2982C17.259 5.05186 16.937 5.91961 16.835 6.826C16.7329 7.73239 16.8538 8.64999 17.1872 9.49903L11.7476 4.0534C11.2151 3.54176 10.5053 3.25601 9.7668 3.25601C9.02832 3.25601 8.31849 3.54176 7.78598 4.0534C7.26168 4.57935 6.96734 5.29176 6.96752 6.03441C6.96769 6.77705 7.26237 7.48932 7.78692 8.01503L15.4165 15.6371L12.0285 15.9839H12.0263C11.087 16.0286 10.1973 16.4187 9.52801 17.0792C8.8587 17.7397 8.45694 18.6242 8.39984 19.5628V24.3611C7.34661 24.5776 6.40022 25.1506 5.72017 25.9835C5.04012 26.8164 4.66799 27.8582 4.6665 28.9335V37.3335C4.6665 37.581 4.76484 37.8184 4.93987 37.9934C5.11491 38.1685 5.3523 38.2668 5.59984 38.2668H7.4665V41.0668C7.21897 41.0668 6.98157 41.1651 6.80654 41.3402C6.6315 41.5152 6.53317 41.7526 6.53317 42.0001C6.53317 42.2477 6.6315 42.4851 6.80654 42.6601C6.98157 42.8351 7.21897 42.9335 7.4665 42.9335H12.1332C12.3807 42.9335 12.6181 42.8351 12.7931 42.6601C12.9682 42.4851 13.0665 42.2477 13.0665 42.0001C13.0665 41.7526 12.9682 41.5152 12.7931 41.3402C12.6181 41.1651 12.3807 41.0668 12.1332 41.0668V38.2668H32.6665V41.0668C32.419 41.0668 32.1816 41.1651 32.0065 41.3402C31.8315 41.5152 31.7332 41.7526 31.7332 42.0001C31.7332 42.2477 31.8315 42.4851 32.0065 42.6601C32.1816 42.8351 32.419 42.9335 32.6665 42.9335H37.3332C37.5807 42.9335 37.8181 42.8351 37.9931 42.6601C38.1682 42.4851 38.2665 42.2477 38.2665 42.0001C38.2665 41.7526 38.1682 41.5152 37.9931 41.3402C37.8181 41.1651 37.5807 41.0668 37.3332 41.0668V38.2668H39.1998C39.4474 38.2668 39.6848 38.1685 39.8598 37.9934C40.0348 37.8184 40.1332 37.581 40.1332 37.3335V28.9335C40.1317 27.8582 39.7596 26.8164 39.0795 25.9835C38.3995 25.1506 37.4531 24.5776 36.3998 24.3611ZM34.5332 19.5628V24.2668H30.0807C29.7254 23.9181 29.3415 23.5996 28.9332 23.3148C28.9332 23.1103 28.9361 17.6707 28.9286 17.4664L32.5779 17.8398C33.0575 17.8404 33.5205 18.0156 33.8803 18.3327C34.2401 18.6498 34.4722 19.0871 34.5332 19.5628ZM22.3998 3.73345C23.1382 3.73345 23.86 3.95241 24.474 4.36263C25.0879 4.77286 25.5664 5.35592 25.849 6.0381C26.1316 6.72028 26.2055 7.47093 26.0614 8.19512C25.9174 8.91932 25.5618 9.58454 25.0397 10.1067C24.5176 10.6288 23.8524 10.9843 23.1282 11.1284C22.404 11.2724 21.6533 11.1985 20.9712 10.9159C20.289 10.6334 19.7059 10.1549 19.2957 9.54091C18.8855 8.92697 18.6665 8.20517 18.6665 7.46679C18.6676 6.47699 19.0613 5.52806 19.7612 4.82818C20.4611 4.12829 21.41 3.73459 22.3998 3.73345ZM10.4274 5.37267L18.7247 13.6793C18.8764 13.8314 19.0759 13.9264 19.2895 13.9484C19.5031 13.9704 19.7178 13.918 19.8973 13.8001C20.6472 13.3298 21.5145 13.0803 22.3997 13.0803C23.2849 13.0803 24.1522 13.3298 24.9021 13.8001C25.0814 13.9184 25.2962 13.9711 25.5099 13.9491C25.7237 13.927 25.9232 13.8317 26.0746 13.6793L34.372 5.37267C34.5477 5.19982 34.7846 5.10339 35.031 5.10436C35.2775 5.10532 35.5136 5.20362 35.688 5.37784C35.8623 5.55206 35.9608 5.78809 35.9619 6.03456C35.963 6.28103 35.8668 6.51797 35.6941 6.6938L27.0607 15.3178C26.938 15.4402 26.8519 15.5944 26.8119 15.763C26.7719 15.9316 26.7796 16.108 26.8342 16.2725C26.9924 16.7432 27.071 17.2369 27.0665 17.7335V22.3318C24.059 21.1966 20.7407 21.1966 17.7332 22.3318V17.7335C17.7301 17.2373 17.8086 16.744 17.9656 16.2733C18.0202 16.1088 18.0279 15.9324 17.9879 15.7637C17.9479 15.5951 17.8617 15.441 17.7391 15.3185L9.10572 6.69455C8.93043 6.51928 8.83194 6.28156 8.83192 6.03367C8.8319 5.78579 8.93036 5.54805 9.10562 5.37276C9.28089 5.19747 9.51861 5.09898 9.7665 5.09896C10.0144 5.09894 10.2521 5.1974 10.4274 5.37267ZM10.2665 19.5628C10.3276 19.0876 10.5594 18.6509 10.9187 18.3341C11.278 18.0172 11.7403 17.8418 12.2193 17.8406L15.8711 17.4673C15.8636 17.6712 15.8665 23.1108 15.8665 23.3148C15.4583 23.5998 15.0745 23.9182 14.719 24.2668H10.2665V19.5628ZM9.33317 26.1335H15.1292C15.264 26.1335 15.3972 26.1043 15.5197 26.0479C15.6421 25.9916 15.7509 25.9093 15.8385 25.8068C16.2518 25.3391 16.7382 24.9414 17.2786 24.6292C18.841 23.7517 20.6082 23.3046 22.3998 23.3335C24.7111 23.3335 27.4958 24.0928 28.9612 25.8068C29.0488 25.9093 29.1575 25.9916 29.28 26.0479C29.4025 26.1043 29.5357 26.1335 29.6705 26.1335H35.4665C36.2089 26.1343 36.9206 26.4295 37.4455 26.9545C37.9704 27.4794 38.2657 28.1911 38.2665 28.9335H6.53317C6.53399 28.1911 6.82925 27.4794 7.35417 26.9545C7.8791 26.4295 8.59081 26.1343 9.33317 26.1335ZM10.2665 41.0668H9.33317V38.2668H10.2665V41.0668ZM35.4665 41.0668H34.5332V38.2668H35.4665V41.0668ZM38.2665 36.4001H6.53317V30.8001H38.2665V36.4001Z" fill="#AA8453"/>
</svg>
