<svg width="45" height="45" viewBox="0 0 45 45" fill="none" xmlns="http://www.w3.org/2000/svg">
<g clip-path="url(#clip0_73_707)">
<path d="M23.6965 12.785C23.8082 12.161 23.7647 11.535 23.5756 10.9503H33.1825C35.9291 10.9503 38.1636 8.71586 38.1636 5.96932V3.16626H17.6113L5.43191 10.7345H0V22.9215H8.74939C10.1055 22.9215 11.4152 22.5184 12.5366 21.7557L22.0778 15.2677C22.9386 14.6882 23.5135 13.8065 23.6965 12.785ZM20.9368 11.4858C21.2918 12.0233 21.1482 12.7463 20.6148 13.1073L11.0555 19.5776C10.3754 20.0401 9.57189 20.2874 8.74939 20.2874H2.63401V13.3685H6.18362L18.3631 5.80027H35.5296V5.96923C35.5296 7.26336 34.4767 8.31616 33.1826 8.31616L19.9429 8.33585C19.2617 8.3369 18.5859 8.50428 18.002 8.85498C17.9585 8.88115 11.6987 12.9824 11.6987 12.9824L13.1426 15.1854L19.3124 11.1498C19.854 10.7956 20.5801 10.9458 20.9368 11.4858Z" fill="#AA8453"/>
<path d="M42.3894 34.4553V32.3849C42.3894 25.7715 37.2443 20.3379 30.7467 19.8751V17.542H33.2894V14.908H25.57V17.542H28.1127V19.8751C21.6151 20.3379 16.4699 25.7715 16.4699 32.3849V34.4553L14.0596 36.8656V41.6338H44.7999V36.8656L42.3894 34.4553ZM19.104 32.3849C19.104 26.9214 23.5489 22.4765 29.0124 22.4765H29.8473C35.3107 22.4765 39.7555 26.9214 39.7555 32.3849V33.7138H19.104V32.3849ZM42.1659 38.9997H16.6937V37.9567L18.2847 36.3657H40.5749L42.1659 37.9567V38.9997Z" fill="#AA8453"/>
</g>
<defs>
<clipPath id="clip0_73_707">
<rect width="44.8" height="44.8" fill="white"/>
</clipPath>
</defs>
</svg>
