<svg width="45" height="45" viewBox="0 0 45 45" fill="none" xmlns="http://www.w3.org/2000/svg">
<path d="M39.7032 21.4789H38.2605V20.2553C38.2605 17.7066 36.1871 15.6332 33.6384 15.6332H28.5172V15.0431C28.5172 8.75427 23.4009 3.63867 17.1128 3.63867C10.8247 3.63867 5.7077 8.75497 5.7077 15.0438V29.2342H5.5124C5.126 29.2342 4.8124 29.5478 4.8124 29.9342V34.8426H3.3074C2.256 34.8426 1.3999 35.6987 1.3999 36.7501V39.1812C1.3999 40.2326 2.256 41.0887 3.3074 41.0887H12.6811C13.7325 41.0887 14.5886 40.2333 14.5886 39.1812V36.7501C14.5886 35.6987 13.7325 34.8426 12.6811 34.8426H11.1761V29.9342C11.1761 29.5478 10.8625 29.2342 10.4761 29.2342H10.2514V15.0438C10.2514 11.2603 13.3293 8.18237 17.1128 8.18237C20.8963 8.18237 23.9742 11.2603 23.9742 15.0438V16.2058C22.5455 16.9933 21.5753 18.513 21.5753 20.256V25.1098C17.5874 25.1861 14.366 28.4481 14.366 32.4535C14.366 36.5072 17.6637 39.8049 21.7167 39.8049C22.1003 39.8049 22.4741 39.7664 22.8416 39.7097C23.7103 40.6351 24.9087 41.1615 26.1967 41.1615H33.6391C36.1878 41.1615 38.2612 39.0881 38.2612 36.5394V35.313H39.7039C41.7423 35.313 43.4006 33.6547 43.4006 31.6163V25.1756C43.4006 23.1372 41.7416 21.4789 39.7032 21.4789ZM13.1886 36.7508V39.1819C13.1886 39.4612 12.9611 39.6894 12.6811 39.6894H3.3074C3.0274 39.6894 2.7999 39.4619 2.7999 39.1819V36.7508C2.7999 36.4708 3.0274 36.2433 3.3074 36.2433H12.6811C12.9611 36.2433 13.1886 36.4708 13.1886 36.7508ZM6.2124 34.8433V30.6349H9.7761V34.8433H6.2124ZM25.3742 15.6346V15.0445C25.3742 10.4896 21.6684 6.78307 17.1128 6.78307C12.5572 6.78307 8.8514 10.4889 8.8514 15.0445V29.2349H7.1077V15.0445C7.1077 9.52777 11.5961 5.04007 17.1128 5.04007C22.6295 5.04007 27.1172 9.52847 27.1172 15.0445V15.6346H26.1967C26.1967 15.6346 26.1925 15.6346 26.1897 15.6346H25.3742ZM15.7653 32.4535C15.7653 29.1719 18.4351 26.5028 21.716 26.5028C24.9969 26.5028 27.6674 29.1726 27.6674 32.4535C27.6674 35.3116 25.6416 37.7042 22.9508 38.274C22.9361 38.2775 22.9228 38.2803 22.9088 38.2845C22.5231 38.3629 22.1241 38.4049 21.716 38.4049C18.4344 38.4049 15.7653 35.7351 15.7653 32.4535ZM36.8605 36.5394C36.8605 38.316 35.4157 39.7615 33.6384 39.7615H26.196C25.5737 39.7615 24.9801 39.5858 24.4733 39.2638C27.1634 38.1704 29.0674 35.5321 29.0674 32.4542C29.0674 28.8303 26.4298 25.8182 22.9746 25.219V20.2567C22.9746 18.4815 24.418 17.0374 26.1932 17.0353H27.8172H27.8186H33.6384C35.415 17.0353 36.8605 18.4801 36.8605 20.2574V36.5408V36.5394ZM41.9999 31.6163C41.9999 32.8826 40.9695 33.913 39.7032 33.913H38.2626V22.8796H39.7032C40.9695 22.8796 41.9999 23.91 41.9999 25.1763V31.6163Z" fill="#AA8453"/>
<path d="M25.3883 32.4534C25.3883 30.4283 23.7412 28.7812 21.7161 28.7812C19.691 28.7812 18.0439 30.4283 18.0439 32.4534C18.0439 34.4785 19.691 36.1257 21.7161 36.1257C23.7412 36.1257 25.3883 34.4785 25.3883 32.4534ZM19.4446 32.4534C19.4446 31.2004 20.4638 30.1812 21.7168 30.1812C22.9698 30.1812 23.989 31.2004 23.989 32.4534C23.989 33.7064 22.9698 34.7257 21.7168 34.7257C20.4638 34.7257 19.4446 33.7064 19.4446 32.4534Z" fill="#AA8453"/>
</svg>
