<svg width="45" height="45" viewBox="0 0 45 45" fill="none" xmlns="http://www.w3.org/2000/svg">
<path d="M41.6032 13.982C41.5731 13.9471 41.5422 13.913 41.5104 13.879C41.4831 13.8498 41.4562 13.8203 41.4275 13.7921L40.1059 12.4705C40.1606 12.4257 40.2135 12.3782 40.2641 12.328L40.5822 12.0099C41.3899 11.2022 41.3899 9.88774 40.5822 9.07999L35.7196 4.21695C35.3289 3.82674 34.8088 3.6117 34.2546 3.6117C33.7004 3.6117 33.1803 3.82674 32.7896 4.21695L32.4716 4.53503C32.4209 4.58566 32.3735 4.63852 32.3291 4.69318L31.0075 3.37158C30.9793 3.34335 30.9497 3.31602 30.9206 3.2887C30.887 3.25734 30.8525 3.22642 30.818 3.19596C30.1568 2.62162 29.319 2.30713 28.4302 2.30713C27.5418 2.30713 26.7036 2.62162 26.0423 3.19596C26.0074 3.22642 25.9733 3.25734 25.9393 3.2887C25.9102 3.31602 25.881 3.34335 25.8524 3.37158L25.0935 4.13049C23.676 5.55154 23.676 7.86367 25.0944 9.28562L27.9042 12.095L26.8958 13.1039C25.0025 11.5082 23.0107 10.153 21.061 10.153C20.4271 10.153 19.8209 10.2945 19.2511 10.5763L18.3461 9.6709C18.6776 9.30444 18.6673 8.73907 18.3139 8.38559L15.0704 5.14207C14.8952 4.9669 14.6577 4.86834 14.41 4.86834C14.1623 4.86834 13.9248 4.9669 13.7492 5.14207L4.38466 14.5071C4.01998 14.8722 4.01998 15.4631 4.38466 15.8282L7.62818 19.0749C7.80335 19.25 8.04079 19.3486 8.28898 19.3486C8.53672 19.3486 8.77416 19.25 8.94933 19.0749L9.7275 18.2962L10.9479 19.517C10.9904 19.7352 11.0307 19.9543 11.0702 20.1675C11.4129 22.0303 11.7668 23.95 13.7613 26.2415L12.0943 27.9085L9.28354 25.0973C8.5972 24.411 7.68149 24.0329 6.70575 24.0329C5.73 24.0329 4.81474 24.4114 4.12795 25.0973L3.37262 25.8531C3.34306 25.8822 3.31528 25.9127 3.2875 25.9427C3.2557 25.9768 3.22479 26.0108 3.19432 26.0458C2.01205 27.4104 2.01205 29.451 3.19432 30.8156C3.22479 30.8501 3.2557 30.8846 3.2875 30.9186C3.31573 30.9487 3.34351 30.9791 3.37262 31.0082L4.69378 32.3294C4.64091 32.3729 4.59029 32.419 4.54146 32.4674L4.22383 32.785C3.83317 33.1757 3.61813 33.6958 3.61813 34.25C3.61813 34.8041 3.83317 35.3247 4.22383 35.7149L9.08552 40.5775C9.47618 40.9682 9.9963 41.1832 10.5505 41.1832C11.1047 41.1832 11.6248 40.9682 12.0154 40.5775L12.3335 40.2599C12.3819 40.2111 12.428 40.16 12.4715 40.1076L13.7913 41.4274C13.8209 41.457 13.8513 41.4852 13.8818 41.5134C13.9159 41.5448 13.9499 41.5761 13.9848 41.6061C14.6448 42.1787 15.4812 42.4927 16.3691 42.4927C17.2566 42.4927 18.0944 42.1791 18.7552 41.6061C18.7901 41.5761 18.8241 41.5448 18.8582 41.5134C18.8882 41.4852 18.9187 41.457 18.9482 41.4278L19.7036 40.6725C21.1251 39.251 21.1251 36.938 19.7036 35.5165L16.8637 32.6766L18.507 31.0347L19.5369 32.0642C19.9992 32.5274 20.5799 32.7725 21.216 32.7725H21.2165C22.3871 32.772 23.5958 31.906 24.0895 30.713C24.154 30.5576 24.2033 30.4021 24.2387 30.2466C25.3502 30.2095 26.484 29.3829 26.9571 28.2539C27.0015 28.1482 27.0391 28.042 27.0691 27.9363C27.0915 27.9363 27.1144 27.9368 27.1368 27.9368C28.2783 27.9368 29.4561 27.0936 29.9372 25.9315C30.1025 25.5319 30.1693 25.1282 30.1406 24.7421C31.0102 24.4661 31.7996 23.7592 32.1701 22.8632C32.5665 21.9044 32.3851 20.9157 31.6858 20.2173L30.5044 19.0363L32.6759 16.8649L35.5135 19.7021C36.2003 20.3889 37.1155 20.7665 38.0913 20.7665C39.067 20.7665 39.9827 20.3884 40.6677 19.703L41.4266 18.9467C41.4549 18.9181 41.4822 18.8885 41.5095 18.8594C41.5413 18.8258 41.5722 18.7917 41.6023 18.7568C42.7895 17.3917 42.7895 15.3475 41.6032 13.982ZM33.7932 5.85618L34.1112 5.53811C34.1592 5.49017 34.2156 5.47986 34.2551 5.47986C34.294 5.47986 34.3505 5.49017 34.3989 5.53811L39.2615 10.4011C39.3394 10.4791 39.3394 10.6108 39.2615 10.6888L38.9438 11.0068C38.8954 11.0548 38.839 11.0651 38.7996 11.0651C38.7597 11.0651 38.7019 11.0543 38.6535 11.0068L33.7932 6.1438C33.7452 6.09542 33.7349 6.03942 33.7349 5.99999C33.7349 5.96057 33.7448 5.90457 33.7932 5.85618ZM11.0124 38.9383L10.6943 39.2564C10.6464 39.3048 10.5895 39.3146 10.5505 39.3146C10.5115 39.3146 10.4551 39.3048 10.4067 39.2564L5.54408 34.3933C5.49615 34.345 5.48584 34.2885 5.48584 34.2495C5.48584 34.211 5.4957 34.1541 5.54408 34.1057L5.86216 33.7881C5.9101 33.7402 5.96699 33.7298 6.00597 33.7298C6.04495 33.7298 6.10139 33.7397 6.14978 33.7881L11.0124 38.6511C11.0603 38.6991 11.0706 38.7555 11.0706 38.7949C11.0706 38.8335 11.0603 38.8904 11.0124 38.9383ZM6.36616 15.1679L14.4104 7.12358L16.3333 9.04639L8.28898 17.0925L6.36616 15.1679ZM18.382 36.8381C19.075 37.5311 19.075 38.6587 18.382 39.3518L17.6266 40.1071C17.2929 40.4409 16.8462 40.6246 16.3691 40.6246C15.892 40.6246 15.4462 40.4409 15.1134 40.1071L4.69378 29.6871C4.00072 28.9945 4.00072 27.8664 4.69378 27.1738L5.44911 26.4185C5.78287 26.0843 6.22907 25.901 6.70575 25.901C7.18242 25.901 7.62907 26.0847 7.96239 26.418L18.382 36.8381ZM17.1854 29.7144L15.5425 31.3559L14.5274 30.3407L13.4159 29.2288L15.0578 27.5869L17.1854 29.7144ZM30.4439 22.1495C30.2562 22.6024 29.7482 23.0002 29.3562 23.0002C29.2343 23.0002 29.1416 22.9595 29.0448 22.8627C28.6801 22.498 28.0892 22.4989 27.7246 22.8636C27.3594 23.2283 27.3603 23.821 27.725 24.1857L28.1421 24.6023C28.2106 24.6708 28.3715 24.8317 28.2115 25.2174C28.0238 25.6708 27.5216 26.069 27.1372 26.069C27.0158 26.069 26.9173 26.0251 26.8214 25.9288L26.5006 25.6054C26.5002 25.6054 26.5002 25.6049 26.4997 25.6045L26.4876 25.5924C26.1234 25.2282 25.5334 25.2277 25.1678 25.591C24.8027 25.9544 24.8009 26.5453 25.1638 26.9108L25.1705 26.9176C25.2377 26.9861 25.3959 27.1465 25.2346 27.5322C25.0455 27.9838 24.5438 28.3803 24.1616 28.3803C24.0402 28.3803 23.9416 28.3364 23.8431 28.2374L23.6048 27.999C23.2396 27.6339 22.6483 27.6339 22.2836 27.999C21.9189 28.3633 21.9185 28.9551 22.2836 29.3202L22.2858 29.3224C22.3575 29.3941 22.5376 29.5805 22.3642 29.9989C22.1644 30.4814 21.6282 30.9048 21.2165 30.9048C21.0803 30.9048 20.9701 30.8559 20.859 30.7444L19.1772 29.0635C19.174 29.0603 19.1718 29.0568 19.1687 29.0541L15.9005 25.7877L15.801 25.6887C13.5772 23.463 13.2676 21.779 12.9088 19.8293C12.8514 19.5166 12.7914 19.1931 12.7233 18.8657C12.6861 18.6874 12.5978 18.5238 12.4693 18.3953L11.05 16.976L17.0286 10.9952L18.4478 12.4154C18.7749 12.7424 19.2919 12.7805 19.6632 12.5063C20.1045 12.1802 20.5619 12.0216 21.061 12.0216C22.4014 12.0216 24.0429 13.155 25.5706 14.4305L25.1244 14.8767L25.0724 14.9286C25.05 14.951 25.0294 14.9743 25.0097 14.9981C24.9967 15.0138 24.9855 15.0303 24.9738 15.0465C24.9676 15.055 24.9608 15.0635 24.955 15.072C24.9411 15.093 24.9281 15.115 24.9165 15.1374C24.9138 15.1414 24.9111 15.1464 24.9084 15.1504C24.8959 15.1737 24.8851 15.1974 24.8748 15.2212C24.873 15.2252 24.8708 15.2288 24.8695 15.2328C24.86 15.2561 24.852 15.2794 24.8444 15.3032C24.843 15.3085 24.8403 15.3135 24.8385 15.3188C24.8318 15.3408 24.8273 15.3627 24.822 15.3842C24.8202 15.3923 24.8179 15.3999 24.8161 15.408C24.8126 15.4282 24.8099 15.4483 24.8072 15.4694C24.8058 15.4788 24.804 15.4886 24.8032 15.4985C24.8009 15.5213 24.8005 15.5442 24.7996 15.5666C24.7996 15.5778 24.7991 15.5885 24.7991 15.5997C24.7991 15.6266 24.8005 15.6539 24.8032 15.6808C24.804 15.6884 24.8054 15.6956 24.8067 15.7032C24.8094 15.7256 24.8121 15.7489 24.8166 15.7709C24.8179 15.7767 24.8197 15.7821 24.8206 15.7874C24.826 15.8121 24.8318 15.8358 24.839 15.8605C24.8394 15.8636 24.8412 15.8667 24.8421 15.8699C24.8502 15.8959 24.8592 15.9214 24.8695 15.9465C24.8704 15.9483 24.8708 15.9501 24.8717 15.9514C24.8824 15.9778 24.895 16.0034 24.9084 16.0294C24.9093 16.0307 24.9102 16.0321 24.9111 16.0334C24.9246 16.0589 24.9393 16.0831 24.9555 16.1069C24.9591 16.1122 24.9635 16.1172 24.9667 16.1226C24.9806 16.1423 24.9944 16.1615 25.0097 16.1803C25.0289 16.2045 25.05 16.2274 25.0724 16.2498L30.3646 21.5398C30.4359 21.6097 30.5998 21.7732 30.4439 22.1495ZM31.3552 15.5446L29.1837 17.7161L27.0548 15.589L27.0544 15.5885L27.617 15.0254L29.2254 13.4157L29.2263 13.4148L31.3556 15.5442L31.3552 15.5446ZM40.1077 17.6256L39.3488 18.3818C39.0151 18.7156 38.5684 18.8988 38.0917 18.8988C37.6151 18.8988 37.1688 18.7151 36.8346 18.3814L33.3452 14.8928C33.3425 14.8897 33.3398 14.8865 33.3367 14.8834L29.8866 11.4329C29.8803 11.4266 29.8741 11.4221 29.8678 11.4159L26.4155 7.96447C25.7242 7.27097 25.7242 6.1429 26.4151 5.4503L27.1731 4.69228C27.5073 4.35897 27.9535 4.17529 28.4302 4.17529C28.9068 4.17529 29.3535 4.35942 29.6872 4.69273L40.1068 15.1128C40.7994 15.8063 40.7994 16.9334 40.1077 17.6256Z" fill="#AA8453"/>
</svg>
