<svg width="45" height="45" viewBox="0 0 45 45" fill="none" xmlns="http://www.w3.org/2000/svg">
<g clip-path="url(#clip0_73_813)">
<path d="M44.7998 12.6935C44.7965 9.80825 42.4584 7.47012 39.5731 7.46683H17.1731C16.7147 7.4652 16.2583 7.52778 15.8172 7.65275C15.5379 7.71995 8.16237 10.5005 3.79064 12.1514H3.78466C2.93259 12.3892 2.15721 12.845 1.53496 13.4738C0.546513 14.4504 -0.00684851 15.784 -0.000190196 17.1735C0.00104926 19.0104 0.967334 20.7116 2.54445 21.6535C0.967994 22.596 0.00194178 24.2968 -0.000190196 26.1335C0.00272724 27.971 0.970294 29.6719 2.54818 30.6135C0.5289 31.817 -0.437194 34.2215 0.188062 36.4875C0.813318 38.7536 2.87575 40.3224 5.22648 40.3202H27.6265C28.399 40.3195 29.1615 40.146 29.8583 39.8124C29.8637 39.8128 29.8692 39.8128 29.8747 39.8124L41.8878 35.3003C43.6034 34.4551 44.7188 32.7386 44.794 30.8276C44.8692 28.9166 43.8923 27.1177 42.2485 26.1402C42.621 25.9243 42.9624 25.6585 43.2632 25.3502C44.2514 24.3746 44.8053 23.0422 44.7998 21.6535C44.7933 19.8188 43.8275 18.1211 42.2537 17.178C42.6246 16.9622 42.9647 16.6972 43.2647 16.3902C44.2524 15.4144 44.8057 14.082 44.7998 12.6935ZM16.2286 9.08784C16.5361 9.00191 16.8539 8.95895 17.1731 8.96016H39.5731C41.634 8.96263 43.304 10.6327 43.3065 12.6935C43.3111 13.6844 42.9162 14.6353 42.2111 15.3315C41.9574 15.5955 41.6605 15.8142 41.333 15.9781C41.2927 15.9997 41.2584 16.0199 41.2203 16.0393C40.213 16.4126 38.4397 17.0787 35.6912 18.1106L32.373 19.3567C33.119 17.739 32.9889 15.8526 32.028 14.3525C31.0671 12.8525 29.4079 11.9456 27.6265 11.9468H8.56557C12.2832 10.5468 15.9247 9.18416 16.2286 9.08784ZM1.49314 17.1735C1.48889 16.1809 1.88514 15.2285 2.59224 14.5318C3.04356 14.0736 3.60954 13.7448 4.23117 13.5798C4.24984 13.5738 4.27149 13.5671 4.29314 13.5589C4.5978 13.4791 4.91154 13.4392 5.22648 13.4402H27.6265C29.6873 13.4426 31.3573 15.1127 31.3598 17.1735C31.3544 18.5704 30.5748 19.8491 29.3356 20.4939C29.3137 20.5023 29.2923 20.5118 29.2714 20.5223C28.7608 20.7777 28.1974 20.9094 27.6265 20.9068H5.22648C3.16564 20.9044 1.49561 19.2343 1.49314 17.1735ZM1.49314 26.1335C1.49684 24.0732 3.16615 22.4039 5.22648 22.4002H27.6265C29.6873 22.4026 31.3573 24.0727 31.3598 26.1335C31.3544 27.5304 30.5748 28.8091 29.3356 29.4539C29.3137 29.4623 29.2923 29.4718 29.2714 29.4823C28.7608 29.7377 28.1974 29.8694 27.6265 29.8668H5.22648C3.16564 29.8644 1.49561 28.1943 1.49314 26.1335ZM5.22648 38.8268C3.16461 38.8268 1.49314 37.1554 1.49314 35.0935C1.49314 33.0316 3.16461 31.3602 5.22648 31.3602H27.6265C29.6883 31.3602 31.3598 33.0316 31.3598 35.0935C31.3598 37.1554 29.6883 38.8268 27.6265 38.8268H5.22648ZM43.3065 30.6135C43.311 31.6042 42.9165 32.555 42.2119 33.2515C41.9434 33.5233 41.6349 33.7524 41.2972 33.9309L32.3678 37.2797C33.4805 34.8885 32.6264 32.0431 30.3809 30.6598L40.2369 26.9623C42.0077 27.2782 43.2995 28.8148 43.3065 30.6135ZM43.3065 21.6535C43.3111 22.6444 42.9162 23.5953 42.2111 24.2915C41.9574 24.5555 41.6605 24.7742 41.333 24.9381C41.292 24.9605 41.2531 24.9806 41.2188 25.0001L32.3723 28.3175C33.4781 25.9255 32.6232 23.0843 30.3809 21.6998L36.2131 19.5091C37.917 18.8692 39.2409 18.3719 40.2451 17.9963C42.0128 18.3198 43.2992 19.8565 43.3065 21.6535Z" fill="#AA8453"/>
<path d="M29.1196 17.1734C29.1196 16.7611 28.7853 16.4268 28.3729 16.4268H4.47958C4.0672 16.4268 3.73291 16.7611 3.73291 17.1734C3.73291 17.5858 4.0672 17.9201 4.47958 17.9201H28.3729C28.7853 17.9201 29.1196 17.5858 29.1196 17.1734Z" fill="#AA8453"/>
<path d="M29.1196 26.1334C29.1196 25.721 28.7853 25.3867 28.3729 25.3867H4.47958C4.0672 25.3867 3.73291 25.721 3.73291 26.1334C3.73291 26.5458 4.0672 26.8801 4.47958 26.8801H28.3729C28.7853 26.8801 29.1196 26.5458 29.1196 26.1334Z" fill="#AA8453"/>
<path d="M28.3729 34.3467H4.47958C4.0672 34.3467 3.73291 34.681 3.73291 35.0933C3.73291 35.5057 4.0672 35.84 4.47958 35.84H28.3729C28.7853 35.84 29.1196 35.5057 29.1196 35.0933C29.1196 34.681 28.7853 34.3467 28.3729 34.3467Z" fill="#AA8453"/>
<path d="M7.46639 1.49341C7.05402 1.49341 6.71973 1.8277 6.71973 2.24007V3.73341C6.71973 4.14578 7.05402 4.48007 7.46639 4.48007C7.87877 4.48007 8.21306 4.14578 8.21306 3.73341V2.24007C8.21306 1.8277 7.87877 1.49341 7.46639 1.49341Z" fill="#AA8453"/>
<path d="M6.71973 8.21339C6.71973 8.62576 7.05402 8.96006 7.46639 8.96006C7.87877 8.96006 8.21306 8.62576 8.21306 8.21339V6.72006C8.21306 6.30768 7.87877 5.97339 7.46639 5.97339C7.05402 5.97339 6.71973 6.30768 6.71973 6.72006V8.21339Z" fill="#AA8453"/>
<path d="M5.97291 4.47998H4.47958C4.0672 4.47998 3.73291 4.81427 3.73291 5.22665C3.73291 5.63902 4.0672 5.97331 4.47958 5.97331H5.97291C6.38528 5.97331 6.71958 5.63902 6.71958 5.22665C6.71958 4.81427 6.38528 4.47998 5.97291 4.47998Z" fill="#AA8453"/>
<path d="M8.96005 5.97331H10.4534C10.8658 5.97331 11.2 5.63902 11.2 5.22665C11.2 4.81427 10.8658 4.47998 10.4534 4.47998H8.96005C8.54767 4.47998 8.21338 4.81427 8.21338 5.22665C8.21338 5.63902 8.54767 5.97331 8.96005 5.97331Z" fill="#AA8453"/>
<path d="M43.4612 40.9122C43.1682 40.6293 42.7025 40.6333 42.4145 40.9213C42.1265 41.2093 42.1224 41.675 42.4054 41.968L43.5254 43.088C43.8184 43.371 44.2841 43.3669 44.5721 43.0789C44.8601 42.7909 44.8642 42.3252 44.5812 42.0322L43.4612 40.9122Z" fill="#AA8453"/>
<path d="M40.165 39.7279C40.458 40.0109 40.9237 40.0068 41.2117 39.7188C41.4998 39.4308 41.5038 38.9651 41.2208 38.6721L40.1008 37.5521C39.8079 37.2692 39.3422 37.2732 39.0541 37.5612C38.7661 37.8492 38.7621 38.3149 39.045 38.6079L40.165 39.7279Z" fill="#AA8453"/>
<path d="M39.0453 43.088C39.3368 43.3795 39.8095 43.3795 40.1011 43.088L41.2211 41.968C41.504 41.675 41.5 41.2093 41.212 40.9213C40.924 40.6333 40.4583 40.6293 40.1653 40.9122L39.0453 42.0322C38.7538 42.3238 38.7538 42.7965 39.0453 43.088Z" fill="#AA8453"/>
<path d="M43.5252 37.5521L42.4052 38.6721C42.2111 38.8596 42.1333 39.1372 42.2016 39.3983C42.2699 39.6593 42.4738 39.8632 42.7349 39.9315C42.9959 39.9999 43.2735 39.922 43.461 39.7279L44.581 38.6079C44.864 38.3149 44.8599 37.8492 44.5719 37.5612C44.2839 37.2732 43.8182 37.2692 43.5252 37.5521Z" fill="#AA8453"/>
</g>
<defs>
<clipPath id="clip0_73_813">
<rect width="44.8" height="44.8" fill="white"/>
</clipPath>
</defs>
</svg>
