<svg width="45" height="45" viewBox="0 0 45 45" fill="none" xmlns="http://www.w3.org/2000/svg">
<g clip-path="url(#clip0_73_859)">
<path d="M30.7773 24.4836C25.7534 21.0538 19.0858 21.0268 14.0224 24.4836C12.5089 25.5167 12.3121 27.681 13.6124 28.9812C14.6063 29.9752 16.1813 30.1198 17.3582 29.3225C20.3913 27.2673 24.3971 27.2597 27.4414 29.3225C29.5196 30.7308 32.2672 29.0901 32.0366 26.6244C31.9555 25.7548 31.4963 24.9745 30.7773 24.4836ZM30.1972 27.9913C29.6765 28.512 28.8477 28.5844 28.2268 28.1636C24.7206 25.7878 20.0929 25.7785 16.573 28.1636C15.9519 28.5846 15.1232 28.5121 14.6025 27.9913C13.922 27.3108 14.0232 26.1781 14.8118 25.6399C19.3708 22.5273 25.4118 22.5156 29.988 25.6399C30.7781 26.1792 30.8763 27.3122 30.1972 27.9913Z" fill="#AA8453"/>
<path d="M37.3557 18.2258C28.6426 11.1932 16.1721 11.1817 7.44467 18.2258C6.08939 19.3197 5.98544 21.354 7.21796 22.5864C8.28177 23.6501 9.96894 23.7389 11.1427 22.7927C17.6783 17.5242 27.078 17.4888 33.6576 22.7927C35.6314 24.384 38.5752 22.8906 38.4399 20.3495C38.3959 19.5204 38.0007 18.7463 37.3557 18.2258ZM36.5925 21.5964C36.0358 22.1532 35.1518 22.199 34.5363 21.7028C27.4897 16.0225 17.3579 15.9844 10.2642 21.7028C9.6486 22.199 8.76468 22.1531 8.20793 21.5964C7.57706 20.9655 7.59911 19.9002 8.32404 19.3152C16.4954 12.72 28.2497 12.6753 36.4765 19.3152C37.2017 19.9005 37.223 20.9659 36.5925 21.5964Z" fill="#AA8453"/>
<path d="M44.7978 14.0415C44.7674 13.227 44.3957 12.455 43.7781 11.9234C31.491 1.34606 13.2862 1.36584 1.02194 11.9233C0.404373 12.455 0.0326759 13.227 0.00222615 14.0415C-0.0935856 16.6073 2.92505 18.0399 4.86133 16.374C14.9421 7.69939 29.8767 7.71566 39.9387 16.374C41.8779 18.0423 44.8936 16.6044 44.7978 14.0415ZM42.949 15.2398C42.3831 15.8058 41.4619 15.8377 40.8519 15.3127C30.2469 6.18731 14.5359 6.20219 3.94827 15.3127C3.33814 15.8379 2.41694 15.8058 1.85109 15.2398C1.221 14.6098 1.25207 13.5726 1.93535 12.9843C13.697 2.85945 31.125 2.87826 42.8648 12.9844C43.54 13.5656 43.5865 14.6024 42.949 15.2398Z" fill="#AA8453"/>
<path d="M22.4 40.8024C19.6982 40.8024 17.5 38.6044 17.5 35.9024C17.5 33.2005 19.6982 31.0024 22.4 31.0024C25.1018 31.0024 27.3 33.2005 27.3 35.9024C27.3 38.6044 25.1018 40.8024 22.4 40.8024ZM22.4 32.4024C20.4701 32.4024 18.9 33.9725 18.9 35.9024C18.9 37.8323 20.4701 39.4024 22.4 39.4024C24.3299 39.4024 25.9 37.8323 25.9 35.9024C25.9 33.9725 24.3299 32.4024 22.4 32.4024Z" fill="#AA8453"/>
</g>
<defs>
<clipPath id="clip0_73_859">
<rect width="44.8" height="44.8" fill="white"/>
</clipPath>
</defs>
</svg>
