<svg width="45" height="45" viewBox="0 0 45 45" fill="none" xmlns="http://www.w3.org/2000/svg">
<g clip-path="url(#clip0_73_738)">
<path d="M8.40006 11.6666C9.32304 11.6666 10.2253 11.3929 10.9927 10.8801C11.7602 10.3673 12.3583 9.6385 12.7115 8.78578C13.0647 7.93305 13.1571 6.99474 12.9771 6.0895C12.797 5.18425 12.3525 4.35273 11.6999 3.70009C11.0473 3.04744 10.2157 2.60299 9.31049 2.42292C8.40524 2.24286 7.46693 2.33527 6.61421 2.68848C5.76149 3.04169 5.03265 3.63983 4.51987 4.40726C4.00709 5.17469 3.7334 6.07694 3.7334 6.99992C3.7334 8.2376 4.22506 9.42458 5.10023 10.2998C5.9754 11.1749 7.16239 11.6666 8.40006 11.6666ZM8.40006 4.19992C8.95385 4.19992 9.4952 4.36414 9.95566 4.67181C10.4161 4.97947 10.775 5.41677 10.9869 5.92841C11.1989 6.44004 11.2543 7.00303 11.1463 7.54617C11.0382 8.08932 10.7716 8.58823 10.38 8.97982C9.98838 9.37141 9.48946 9.63808 8.94632 9.74612C8.40317 9.85416 7.84018 9.79871 7.32855 9.58678C6.81692 9.37486 6.37962 9.01598 6.07195 8.55552C5.76428 8.09506 5.60007 7.55371 5.60007 6.99992C5.60007 6.25731 5.89506 5.54512 6.42017 5.02002C6.94527 4.49492 7.65746 4.19992 8.40006 4.19992Z" fill="#AA8453"/>
<path d="M15.8667 30.1839V30.0346C14.9333 27.1693 13.0013 25.8719 9.38 25.6946V21.9613H16.8467C17.5893 21.9613 18.3015 21.6663 18.8266 21.1412C19.3517 20.6161 19.6467 19.9039 19.6467 19.1613C19.6467 18.4187 19.3517 17.7065 18.8266 17.1814C18.3015 16.6563 17.5893 16.3613 16.8467 16.3613H11.032C10.5187 14.2333 8.232 12.6279 5.6 12.6279C2.09067 12.6279 0 15.0733 0 19.1613V28.4946C0 29.4847 0.393332 30.4343 1.09347 31.1345C1.7936 31.8346 2.74319 32.2279 3.73333 32.2279H8.624L11.2 41.7759C11.2547 41.9795 11.3767 42.1586 11.5462 42.2841C11.7157 42.4095 11.9226 42.4738 12.1333 42.4666C12.2136 42.4807 12.2957 42.4807 12.376 42.4666C12.6129 42.4011 12.8144 42.2447 12.9367 42.0315C13.059 41.8184 13.0923 41.5655 13.0293 41.3279L10.2293 31.0613C10.1746 30.8576 10.0526 30.6785 9.88314 30.5531C9.71366 30.4277 9.50671 30.3634 9.296 30.3706H3.73333C3.23826 30.3706 2.76347 30.1739 2.4134 29.8239C2.06333 29.4738 1.86667 28.999 1.86667 28.5039V19.1706C1.86667 17.0426 2.51067 14.5039 5.6 14.5039C7.62533 14.5039 9.27733 15.7639 9.27733 17.3039C9.27733 17.5515 9.37567 17.7889 9.5507 17.9639C9.72573 18.1389 9.96313 18.2373 10.2107 18.2373H16.8C17.0475 18.2373 17.2849 18.3356 17.46 18.5106C17.635 18.6857 17.7333 18.9231 17.7333 19.1706C17.7333 19.4181 17.635 19.6555 17.46 19.8306C17.2849 20.0056 17.0475 20.1039 16.8 20.1039H8.68L6.11333 18.3586C5.9084 18.2487 5.66982 18.2192 5.4443 18.276C5.21879 18.3328 5.02259 18.4717 4.89413 18.6655C4.76567 18.8594 4.71421 19.0942 4.74983 19.324C4.78544 19.5538 4.90556 19.762 5.08667 19.9079L7.46667 21.4666V26.5999C7.46667 26.8475 7.565 27.0849 7.74003 27.2599C7.91507 27.4349 8.15246 27.5333 8.4 27.5333C11.816 27.5333 13.244 28.2986 14 30.5573L15.8667 41.6826C15.9024 41.9034 16.0164 42.1041 16.1877 42.248C16.359 42.3919 16.5763 42.4695 16.8 42.4666H16.9493C17.0726 42.4485 17.191 42.4059 17.2975 42.3413C17.404 42.2767 17.4966 42.1915 17.5696 42.0906C17.6427 41.9897 17.6948 41.8752 17.7229 41.7538C17.7511 41.6324 17.7546 41.5067 17.7333 41.3839L15.8667 30.1839Z" fill="#AA8453"/>
<path d="M36.4001 11.6666C37.323 11.6666 38.2253 11.3929 38.9927 10.8801C39.7602 10.3673 40.3583 9.6385 40.7115 8.78578C41.0647 7.93305 41.1571 6.99474 40.9771 6.0895C40.797 5.18425 40.3525 4.35273 39.6999 3.70009C39.0473 3.04744 38.2157 2.60299 37.3105 2.42292C36.4052 2.24286 35.4669 2.33527 34.6142 2.68848C33.7615 3.04169 33.0327 3.63983 32.5199 4.40726C32.0071 5.17469 31.7334 6.07694 31.7334 6.99992C31.7334 8.2376 32.2251 9.42458 33.1002 10.2998C33.9754 11.1749 35.1624 11.6666 36.4001 11.6666ZM36.4001 4.19992C36.9539 4.19992 37.4952 4.36414 37.9557 4.67181C38.4161 4.97947 38.775 5.41677 38.9869 5.92841C39.1989 6.44004 39.2543 7.00303 39.1463 7.54617C39.0382 8.08932 38.7715 8.58823 38.38 8.97982C37.9884 9.37141 37.4895 9.63808 36.9463 9.74612C36.4032 9.85416 35.8402 9.79871 35.3286 9.58678C34.8169 9.37486 34.3796 9.01598 34.072 8.55552C33.7643 8.09506 33.6001 7.55371 33.6001 6.99992C33.6001 6.25731 33.8951 5.54512 34.4202 5.02002C34.9453 4.49492 35.6575 4.19992 36.4001 4.19992Z" fill="#AA8453"/>
<path d="M39.2 12.5999C36.5213 12.5999 34.2813 14.2052 33.768 16.3332H28C27.2573 16.3332 26.5452 16.6282 26.0201 17.1533C25.4949 17.6784 25.2 18.3906 25.2 19.1332C25.2 19.8758 25.4949 20.588 26.0201 21.1131C26.5452 21.6382 27.2573 21.9332 28 21.9332H35.4666V25.6665C31.8453 25.8439 29.9413 27.1412 28.98 30.0065L27.0666 41.3839C27.0466 41.5052 27.0509 41.6294 27.079 41.7491C27.1072 41.8689 27.1588 41.9819 27.2308 42.0816C27.3028 42.1814 27.3938 42.2659 27.4985 42.3303C27.6033 42.3948 27.7198 42.4379 27.8413 42.4572H28C28.2237 42.4601 28.441 42.3825 28.6123 42.2386C28.7836 42.0947 28.8975 41.894 28.9333 41.6732L30.8 30.5479C31.584 28.2892 33.012 27.5239 36.4 27.5239C36.6475 27.5239 36.8849 27.4255 37.0599 27.2505C37.235 27.0755 37.3333 26.8381 37.3333 26.5905V21.4665L39.7133 19.8799C39.8277 19.8185 39.9281 19.7339 40.008 19.6315C40.0879 19.5291 40.1455 19.4112 40.1772 19.2852C40.2089 19.1593 40.214 19.0281 40.1921 18.9001C40.1702 18.7721 40.1219 18.6501 40.0501 18.5418C39.9784 18.4336 39.8849 18.3415 39.7755 18.2714C39.6661 18.2014 39.5434 18.1549 39.415 18.1351C39.2867 18.1152 39.1556 18.1223 39.0302 18.1559C38.9048 18.1896 38.7878 18.2491 38.6866 18.3305L36.12 20.0665H28C27.7524 20.0665 27.515 19.9682 27.34 19.7932C27.165 19.6181 27.0666 19.3807 27.0666 19.1332C27.0666 18.8857 27.165 18.6483 27.34 18.4732C27.515 18.2982 27.7524 18.1999 28 18.1999H34.5893C34.8368 18.1999 35.0742 18.1015 35.2492 17.9265C35.4243 17.7515 35.5226 17.5141 35.5226 17.2665C35.5226 15.7265 37.1746 14.4665 39.2 14.4665C42.2893 14.4665 42.9333 17.0052 42.9333 19.1332V28.4665C42.9333 28.9616 42.7366 29.4364 42.3866 29.7865C42.0365 30.1365 41.5617 30.3332 41.0666 30.3332H35.4666C35.2559 30.326 35.049 30.3903 34.8795 30.5157C34.71 30.6411 34.588 30.8202 34.5333 31.0239L31.7333 41.2905C31.6703 41.5281 31.7036 41.7809 31.8259 41.9941C31.9482 42.2073 32.1497 42.3637 32.3866 42.4292C32.4669 42.4433 32.549 42.4433 32.6293 42.4292C32.84 42.4364 33.0469 42.3721 33.2164 42.2467C33.3859 42.1212 33.5079 41.9421 33.5626 41.7385L36.176 32.1625H41.0666C42.0568 32.1625 43.0063 31.7692 43.7065 31.069C44.4066 30.3689 44.8 29.4193 44.8 28.4292V19.0959C44.8 15.0452 42.7093 12.5999 39.2 12.5999Z" fill="#AA8453"/>
<path d="M32.6666 24.7334C32.9142 24.7334 33.1516 24.635 33.3266 24.46C33.5016 24.285 33.6 24.0476 33.6 23.8C33.6 23.5525 33.5016 23.3151 33.3266 23.1401C33.1516 22.965 32.9142 22.8667 32.6666 22.8667H12.1333C11.8857 22.8667 11.6484 22.965 11.4733 23.1401C11.2983 23.3151 11.2 23.5525 11.2 23.8C11.2 24.0476 11.2983 24.285 11.4733 24.46C11.6484 24.635 11.8857 24.7334 12.1333 24.7334H21.4666V41.5334C21.4666 41.7809 21.5649 42.0183 21.74 42.1933C21.915 42.3684 22.1524 42.4667 22.4 42.4667C22.6475 42.4667 22.8849 42.3684 23.0599 42.1933C23.235 42.0183 23.3333 41.7809 23.3333 41.5334V24.7334H32.6666Z" fill="#AA8453"/>
</g>
<defs>
<clipPath id="clip0_73_738">
<rect width="44.8" height="44.8" fill="white"/>
</clipPath>
</defs>
</svg>
