<svg width="45" height="45" viewBox="0 0 45 45" fill="none" xmlns="http://www.w3.org/2000/svg">
<g clip-path="url(#clip0_73_753)">
<path d="M17.3694 21.0951C18.4845 22.0667 19.0581 21.4244 19.9844 20.9212L27.7414 16.2142C28.2756 15.8909 28.964 16.0415 29.3172 16.5446L29.3196 16.5428C30.345 17.9782 31.025 18.8566 31.5712 20.8041H37.946C37.3945 17.8796 35.741 11.1713 32.1449 10.8917C29.2234 10.6646 28.9574 12.0031 28.3635 12.3491L17.6306 18.8644C16.9523 19.2683 16.7324 20.3954 17.3694 21.0951ZM23.5005 1.3999C26.7709 1.3999 29.4229 4.05131 29.4229 7.32239C29.4229 7.85781 29.3518 8.37649 29.2186 8.87008C30.0821 8.56891 31.1141 8.43745 32.3211 8.53126C37.7805 8.95554 39.8332 17.9525 40.3614 20.9021C40.7803 21.0849 41.0731 21.5026 41.0731 21.9885V29.1115C41.0731 29.7658 40.5425 30.2964 39.8881 30.2964H17.9879C17.8134 31.5107 17.609 33.8472 17.1328 34.7991C16.9392 35.1863 16.687 35.5341 16.3912 35.8299L10.0719 42.1701C6.31504 45.927 0.74751 40.2041 4.42613 36.5249L9.82933 31.1217L10.4006 27.1586C10.4819 26.0197 10.2076 25.1627 10.7191 23.8439C9.67575 24.506 8.43819 24.8897 7.1116 24.8897C3.38756 24.8897 0.368652 21.8707 0.368652 18.1467C0.368652 14.4227 3.38756 11.4038 7.1116 11.4038C10.835 11.4038 13.8545 14.4233 13.8545 18.1467C13.8545 19.2767 13.5761 20.3416 13.0849 21.2774C13.5785 21.0377 14.1199 20.8806 14.6899 20.8256C14.39 19.2695 15.0742 17.6537 16.4749 16.8034L22.4828 13.1582C19.6748 12.6718 17.5774 10.2248 17.5774 7.32239C17.5774 4.05131 20.2294 1.3999 23.5005 1.3999ZM23.5005 3.76985C21.538 3.76985 19.9473 5.35998 19.9473 7.32239C19.9473 9.2848 21.538 10.8755 23.5005 10.8755C25.4623 10.8755 27.0536 9.2848 27.0536 7.32239C27.0536 5.35998 25.4629 3.76985 23.5005 3.76985ZM16.1606 23.1734C15.1148 23.1734 14.2836 23.0587 13.4691 23.8726C12.3558 24.9865 12.9343 26.3925 12.7455 27.4705L12.1144 31.8495C12.0768 32.1136 11.9549 32.3443 11.7798 32.5194L11.7816 32.5206L6.10171 38.2005C4.64245 39.6597 6.76919 42.0667 8.4603 40.4354L14.7198 34.1603C14.9714 33.9087 15.1214 33.6093 15.1728 33.2496L15.793 28.9453C15.8767 28.3543 16.384 27.9283 16.9637 27.9289V27.9271H38.7032V23.1734H20.8198C20.7319 23.1979 18.4725 24.9136 16.1606 23.1734ZM24.7255 20.8041H29.0865L28.039 18.7933L24.7255 20.8041ZM20.3381 34.5619C18.7779 34.5619 18.7779 32.1925 20.3381 32.1925H43.262C44.8222 32.1925 44.8222 34.5619 43.262 34.5619H20.3381ZM7.1116 13.7737C4.69623 13.7737 2.738 15.7313 2.738 18.1467C2.738 20.5621 4.69623 22.5197 7.1116 22.5197C9.52636 22.5197 11.4846 20.5621 11.4846 18.1467C11.4846 15.7313 9.52696 13.7737 7.1116 13.7737Z" fill="#AA8453"/>
</g>
<defs>
<clipPath id="clip0_73_753">
<rect width="44.8" height="44.8" fill="white"/>
</clipPath>
</defs>
</svg>
