<svg width="45" height="45" viewBox="0 0 45 45" fill="none" xmlns="http://www.w3.org/2000/svg">
<g clip-path="url(#clip0_73_768)">
<path d="M40.7806 22.0406C41.3782 21.9796 41.8134 21.4464 41.7524 20.8497C40.8219 11.6583 33.7169 4.55876 24.7889 3.43383L25.0257 2.51076C25.1611 1.9771 25.043 1.40257 24.7087 0.973772C24.3902 0.56368 23.9166 0.329834 23.4075 0.329834H21.2172C20.6939 0.329834 20.2105 0.575988 19.8919 1.00528C19.5586 1.45476 19.4577 2.04553 19.6207 2.58559L19.8742 3.42743C10.8862 4.5371 3.75655 11.6839 2.86203 20.9368C2.80443 21.5345 3.2416 22.0657 3.83926 22.1248C3.87471 22.1277 3.91015 22.1287 3.9456 22.1287C4.49945 22.1287 4.97206 21.7088 5.02671 21.1461C5.89218 12.189 13.3236 5.43359 22.3111 5.43359C31.2578 5.43359 38.6848 12.1546 39.5887 21.0673C39.6497 21.6655 40.1844 22.0992 40.7806 22.0406ZM21.8676 2.50337H22.7818L22.5854 3.27236C22.4933 3.27137 22.4037 3.25956 22.3111 3.25956C22.2388 3.25956 22.1694 3.26842 22.0975 3.2694L21.8676 2.50337Z" fill="#AA8453"/>
<path d="M43.5781 23.301H41.6163H3.00604H1.32481C0.725178 23.301 0.237793 23.7884 0.237793 24.3885C0.237793 24.9887 0.725178 25.476 1.32481 25.476H2.07902C2.56149 27.2725 4.18905 28.6056 6.13712 28.6056H10.2789C11.6323 30.2544 15.6608 35.1361 15.6608 35.1361C15.6884 35.1681 15.7174 35.1996 15.7489 35.2301L22.1371 41.3249L22.7806 41.8837L21.9092 42.4887C21.4169 42.8319 21.2943 43.5107 21.6374 44.0021C21.8491 44.3068 22.1878 44.4703 22.5305 44.4703C22.7461 44.4703 22.9622 44.4063 23.1513 44.2748L31.553 38.3976L34.5462 41.2087C34.7564 41.4066 35.0243 41.5041 35.2916 41.5041C35.5806 41.5041 35.87 41.3894 36.0837 41.1619C36.4948 40.7233 36.4731 40.0351 36.0364 39.625L32.3028 36.1168C31.9616 35.7973 31.4727 35.752 31.075 35.9514C30.9155 35.432 30.8958 34.8806 31.0366 34.3445C31.2635 33.4839 31.6972 32.6785 32.2895 32.0178L34.7722 29.254C34.9351 29.0733 35.0287 28.8439 35.0459 28.6061H38.4871C40.4342 28.6061 42.0608 27.273 42.5433 25.4765H43.5781C44.1792 25.4765 44.6656 24.9891 44.6656 24.389C44.6656 23.7889 44.1787 23.301 43.5781 23.301ZM30.6718 30.5655C29.8496 31.4817 29.2475 32.5958 28.9334 33.7906C28.6174 34.9943 28.7463 36.2472 29.2928 37.3544L24.6223 40.6037L23.6017 39.7185L17.2972 33.701C16.9644 33.2993 14.6905 30.5419 13.0964 28.6056H14.721C14.721 28.6056 18.3995 31.7461 18.4271 31.7658C19.6554 32.6322 22.4743 33.4032 23.8326 33.4032C25.7566 33.4032 27.6155 32.5919 28.9329 31.1775C29.374 30.7043 29.7807 30.2854 30.0967 29.9629C30.6299 29.4189 31.2143 29.0226 31.8321 28.7834C32.0675 28.6938 32.2609 28.6435 32.4165 28.6199L30.6718 30.5655ZM27.3443 29.6936C26.4355 30.6694 25.1555 31.2287 23.8326 31.2287C22.7968 31.2287 20.5238 30.5542 19.7159 30.0131L18.0687 28.6056H28.382C28.0837 28.9138 27.7332 29.2767 27.3443 29.6936ZM38.4871 26.4316H32.6292C32.6134 26.4316 32.5972 26.4316 32.5799 26.4316H6.13712C5.41047 26.4316 4.77047 26.0496 4.40862 25.476H40.2137C39.8518 26.0496 39.2138 26.4316 38.4871 26.4316Z" fill="#AA8453"/>
<path d="M35.2111 18.2385C35.7847 18.0608 36.1047 17.4508 35.926 16.8777C33.8986 10.368 28.1539 8.49079 27.9102 8.41301C27.3406 8.23627 26.7306 8.54987 26.549 9.12094C26.3673 9.69104 26.6824 10.303 27.253 10.4866C27.4528 10.5516 32.1696 12.1299 33.8489 17.5232C33.9946 17.9894 34.4234 18.2882 34.8872 18.2882C34.995 18.2887 35.1043 18.272 35.2111 18.2385Z" fill="#AA8453"/>
</g>
<defs>
<clipPath id="clip0_73_768">
<rect width="44.8" height="44.8" fill="white"/>
</clipPath>
</defs>
</svg>
