<svg width="45" height="45" viewBox="0 0 45 45" fill="none" xmlns="http://www.w3.org/2000/svg">
<path d="M2.80003 30.6743C3.10476 30.6724 3.40916 30.6948 3.71031 30.7413C3.73458 30.7483 3.75913 30.7515 3.78386 30.7565C4.42761 30.8862 5.04025 31.139 5.58818 31.501C6.69575 32.2357 8.00138 32.6145 9.33019 32.5865C10.6453 32.6178 11.9386 32.2464 13.0366 31.522C13.049 31.5155 13.0608 31.5092 13.073 31.5019C13.8919 30.9395 14.8673 30.6499 15.8604 30.6743C16.8558 30.652 17.8334 30.941 18.6567 31.501C19.7607 32.2364 21.0638 32.6153 22.39 32.5865C23.7188 32.6119 25.024 32.2337 26.1334 31.5019C26.9522 30.9396 27.9276 30.6499 28.9206 30.6743C29.9221 30.6529 30.9052 30.9452 31.7324 31.5101C32.8374 32.2382 34.1374 32.6136 35.4604 32.5865C36.3518 32.6062 37.2377 32.441 38.0621 32.1012C38.4549 31.9277 38.8353 31.7276 39.2008 31.5023C40.0285 30.9493 41.0047 30.6606 42 30.6743C42.2476 30.6743 42.485 30.576 42.66 30.401C42.835 30.2259 42.9334 29.9885 42.9334 29.741C42.9334 29.4935 42.835 29.2561 42.66 29.081C42.485 28.906 42.2476 28.8077 42 28.8077C41.6372 28.8033 41.2745 28.8289 40.9159 28.8842C39.9673 29.0257 39.0604 29.3698 38.2567 29.8931C37.9599 30.0768 37.6512 30.2407 37.3327 30.3835C36.7392 30.6257 36.1013 30.7402 35.4606 30.7195C34.4562 30.7448 33.4696 30.4509 32.6428 29.8801C31.8597 29.3745 30.9798 29.0376 30.0593 28.8907L22.3687 17.6595L32.2234 12.7267C32.6568 12.5101 33.0375 12.2011 33.3385 11.8213C33.6394 11.4416 33.8534 11.0004 33.9652 10.5289C34.077 10.0575 34.084 9.5672 33.9856 9.09273C33.8873 8.61827 33.686 8.17118 33.3959 7.78302C32.9308 7.18279 32.2764 6.75739 31.539 6.57589C30.8016 6.39438 30.0246 6.46742 29.334 6.78314L15.7181 13.2281C15.2449 13.4523 14.8232 13.7719 14.4793 14.1667C14.1355 14.5616 13.8769 15.0233 13.7199 15.5228C13.5629 16.0223 13.5107 16.5489 13.5668 17.0695C13.6228 17.5901 13.7858 18.0935 14.0456 18.5481L15.8553 21.7664L3.78302 28.8722C3.45707 28.8297 3.12873 28.8082 2.80003 28.8077C2.5525 28.8077 2.3151 28.906 2.14007 29.081C1.96503 29.2561 1.8667 29.4935 1.8667 29.741C1.8667 29.9885 1.96503 30.2259 2.14007 30.401C2.3151 30.576 2.5525 30.6743 2.80003 30.6743ZM16.8068 23.3717C17.2343 23.1193 17.5451 22.7087 17.6718 22.2287C17.7984 21.7488 17.7308 21.2382 17.4836 20.8078L15.6653 17.6204C15.5334 17.389 15.4507 17.133 15.4224 16.8682C15.3941 16.6034 15.4208 16.3357 15.5008 16.0817C15.5808 15.8277 15.7124 15.593 15.8874 15.3923C16.0623 15.1916 16.2769 15.0291 16.5175 14.9152L30.1306 8.4721C30.3758 8.35359 30.6497 8.30736 30.9202 8.33882C31.1908 8.37028 31.4467 8.47813 31.6582 8.64976C31.8697 8.82138 32.0279 9.04968 32.1144 9.30795C32.2009 9.56622 32.212 9.84378 32.1466 10.1081C32.099 10.3125 32.0065 10.5037 31.8756 10.6677C31.7447 10.8317 31.5788 10.9644 31.39 11.056L21.5396 15.987C21.2976 16.1054 21.084 16.2744 20.9131 16.4827C20.7423 16.6909 20.6182 16.9334 20.5493 17.1938C20.48 17.4571 20.4681 17.7323 20.5145 18.0006C20.5609 18.2689 20.6645 18.524 20.8182 18.7488L27.7918 28.8898C26.8623 29.0364 25.9745 29.3784 25.1868 29.8931C24.3654 30.4572 23.3865 30.7466 22.3904 30.7199C21.3892 30.7438 20.4061 30.4499 19.5823 29.8804C18.4786 29.1548 17.1809 28.7808 15.8604 28.8077C14.542 28.7789 13.2463 29.1534 12.1466 29.881C12.1324 29.8884 12.1179 29.8965 12.1038 29.9047C11.2887 30.4629 10.3177 30.7482 9.33019 30.7196C8.33338 30.7435 7.35429 30.4534 6.5315 29.8901C6.40083 29.8135 6.26503 29.7356 6.12606 29.658L16.8068 23.3717Z" fill="#AA8453"/>
<path d="M42 34.5443C40.6722 34.5172 39.3675 34.8952 38.2599 35.6281C37.4269 36.1689 36.4551 36.4566 35.4619 36.4566C34.4688 36.4566 33.497 36.1689 32.664 35.6281C31.5452 34.9202 30.2485 34.5443 28.9245 34.5443C27.6005 34.5443 26.3038 34.9202 25.185 35.6281C24.3632 36.1907 23.3852 36.4805 22.3896 36.4566C21.3949 36.4804 20.418 36.1906 19.5973 35.6281C18.4914 34.8952 17.1881 34.5171 15.8617 34.5443C14.5346 34.5172 13.2307 34.8952 12.124 35.6281C11.3027 36.1907 10.3252 36.4805 9.33001 36.4566C8.33492 36.4805 7.35756 36.1906 6.53635 35.6281C5.43008 34.8954 4.1267 34.5173 2.80003 34.5443C2.5525 34.5443 2.3151 34.6427 2.14007 34.8177C1.96503 34.9927 1.8667 35.2301 1.8667 35.4777C1.8667 35.7252 1.96503 35.9626 2.14007 36.1376C2.3151 36.3127 2.5525 36.411 2.80003 36.411C3.79502 36.3874 4.77221 36.6774 5.59322 37.24C6.69969 37.9729 8.00331 38.3509 9.33019 38.3238C10.6572 38.3509 11.961 37.9728 13.0676 37.24C13.8889 36.6774 14.8664 36.3876 15.8617 36.4115C16.8563 36.3877 17.8332 36.6776 18.6539 37.24C19.7599 37.9729 21.0631 38.351 22.3896 38.3238C23.717 38.351 25.0212 37.9729 26.1283 37.24C26.9608 36.6993 27.9322 36.4115 28.9249 36.4115C29.9176 36.4115 30.889 36.6993 31.7215 37.24C32.8406 37.948 34.1377 38.3238 35.4619 38.3238C36.7861 38.3238 38.0832 37.948 39.2023 37.24C40.025 36.6773 41.0036 36.3873 42 36.411C42.2476 36.411 42.485 36.3127 42.66 36.1376C42.835 35.9626 42.9334 35.7252 42.9334 35.4777C42.9334 35.2301 42.835 34.9927 42.66 34.8177C42.485 34.6427 42.2476 34.5443 42 34.5443Z" fill="#AA8453"/>
<path d="M28.6377 21.1367C28.6378 22.4559 29.029 23.7454 29.7619 24.8423C30.4949 25.9391 31.5366 26.7939 32.7554 27.2987C33.9742 27.8035 35.3153 27.9355 36.6091 27.6781C37.9029 27.4207 39.0913 26.7854 40.0241 25.8526C40.9569 24.9197 41.592 23.7312 41.8493 22.4374C42.1067 21.1435 41.9745 19.8025 41.4696 18.5837C40.9648 17.365 40.1098 16.3233 39.0129 15.5905C37.916 14.8576 36.6265 14.4665 35.3073 14.4666C33.5389 14.4684 31.8435 15.1718 30.5931 16.4223C29.3427 17.6728 28.6394 19.3683 28.6377 21.1367ZM35.3073 16.3332C36.2572 16.3332 37.1858 16.6149 37.9756 17.1426C38.7654 17.6704 39.381 18.4204 39.7446 19.298C40.1081 20.1756 40.2033 21.1413 40.018 22.073C39.8327 23.0047 39.3753 23.8605 38.7036 24.5322C38.032 25.2039 37.1762 25.6614 36.2446 25.8467C35.3129 26.0321 34.3472 25.9371 33.4696 25.5736C32.592 25.2102 31.8418 24.5946 31.314 23.8049C30.7862 23.0151 30.5045 22.0865 30.5044 21.1366C30.5058 19.8632 31.0122 18.6423 31.9126 17.7418C32.813 16.8413 34.0339 16.3348 35.3073 16.3332Z" fill="#AA8453"/>
</svg>
